<svg width="24" height="24" viewBox="0 0 24 24" fill="none" xmlns="http://www.w3.org/2000/svg">
<g clip-path="url(#clip0_165_17)">
<path d="M23.5374 5.53049L12.1471 1.26541C12.0347 1.22354 11.91 1.22354 11.7975 1.26541L0.327679 5.56029C0.126315 5.61886 -0.117158 5.93678 0.0629553 6.26213V18.3051C0.0629553 18.5179 0.197833 18.7068 0.398952 18.7765L11.6856 22.6721C11.7526 22.7105 11.8042 22.7444 11.9226 22.76C12.0884 22.782 12.1933 22.7355 12.1941 22.7353L23.6639 18.7765C23.865 18.7068 23.9999 18.5179 23.9999 18.3051V6.0273C24.0041 5.78833 23.7239 5.59658 23.5374 5.53049ZM22.0201 6.0273L12.0022 9.77872L8.99585 8.65319L18.5374 4.72313L22.0201 6.0273ZM17.1654 4.20936L7.13887 8.33908L6.89198 10.7375L5.02529 9.9856V7.75956L15.4246 3.55745L17.1654 4.20936ZM11.9723 2.26475L14.0434 3.04026L4.40493 6.93422L1.95398 6.01626L11.9723 2.26475ZM1.06039 6.76872L4.02795 7.88003V10.6586L7.74858 12.1577L8.03446 9.38L11.5328 10.6901V21.5641L1.06039 17.9496V6.76872ZM23.0026 17.9495L12.5302 21.564V10.6679L23.0026 6.74659V17.9495Z" fill="white"/>
</g>
<defs>
<clipPath id="clip0_165_17">
<rect width="24" height="24" fill="white"/>
</clipPath>
</defs>
</svg>
