<svg width="41" height="41" viewBox="0 0 41 41" fill="none" xmlns="http://www.w3.org/2000/svg">
<path fill-rule="evenodd" clip-rule="evenodd" d="M23.9166 5.12504V5.62025C28.8562 7.09036 32.4583 11.6662 32.4583 17.0834V29.0417H34.1666V32.4584H6.83325V29.0417H8.54159V17.0834C8.54159 11.6662 12.1436 7.09036 17.0833 5.62025V5.12504C17.0833 3.23807 18.6129 1.70837 20.4999 1.70837C22.3869 1.70837 23.9166 3.23807 23.9166 5.12504ZM11.9583 29.0417H29.0416V17.0834C29.0416 12.3659 25.2174 8.54171 20.4999 8.54171C15.7825 8.54171 11.9583 12.3659 11.9583 17.0834V29.0417ZM23.9166 35.875V34.1667H17.0833V35.875C17.0833 37.762 18.6129 39.2917 20.4999 39.2917C22.3869 39.2917 23.9166 37.762 23.9166 35.875Z" fill="white"/>
</svg>
