<svg width="20" height="20" viewBox="0 0 20 20" fill="none" xmlns="http://www.w3.org/2000/svg">
<g clip-path="url(#clip0_167_31)">
<path d="M9.99918 0.186371L0 4.91821V7.9718H1.36024V19.8136H2.19359V7.9718H17.8062V19.8136H18.6395V7.9718H20V4.87853L9.99918 0.186371ZM19.1667 7.13845H0.833347V5.44596L10.0008 1.1076L19.1667 5.40792V7.13845H19.1667Z" fill="white"/>
<path d="M9.53629 11.3336H5.72363V15.0944H9.53629V11.3336ZM8.70294 14.2611H6.55694V12.167H8.70294V14.2611Z" fill="white"/>
<path d="M14.2762 11.3336H10.4635V15.0944H14.2762V11.3336ZM13.4428 14.2611H11.2968V12.167H13.4428V14.2611Z" fill="white"/>
<path d="M3.39758 19.5851H7.21044V15.8242H3.39758V19.5851ZM4.23089 16.6575H6.37709V18.7518H4.23089V16.6575Z" fill="white"/>
<path d="M8.09351 19.5851H11.9064V15.8242H8.09351V19.5851ZM8.92681 16.6575H11.073V18.7518H8.92681V16.6575Z" fill="white"/>
<path d="M12.7896 19.5851H16.6022V15.8242H12.7896V19.5851ZM13.6229 16.6575H15.7689V18.7518H13.6229V16.6575Z" fill="white"/>
<path d="M5.67362 5.36523H3.68774V6.19857H5.67362V5.36523Z" fill="white"/>
<path d="M10.9928 5.36523H9.00696V6.19857H10.9928V5.36523Z" fill="white"/>
<path d="M16.312 5.36523H14.3262V6.19857H16.312V5.36523Z" fill="white"/>
</g>
<defs>
<clipPath id="clip0_167_31">
<rect width="20" height="20" fill="white"/>
</clipPath>
</defs>
</svg>
