<svg width="23" height="23" viewBox="0 0 23 23" fill="none" xmlns="http://www.w3.org/2000/svg">
<g clip-path="url(#clip0_167_57)">
<path d="M21.16 0H1.84004C1.17665 0 0.636963 0.539686 0.636963 1.20308V21.7969C0.636963 22.4603 1.17665 23 1.84004 23H21.16C21.8234 23 22.3631 22.4603 22.3631 21.7969V1.20308C22.3631 0.539686 21.8234 0 21.16 0ZM21.6554 21.7969C21.6554 22.07 21.4331 22.2923 21.16 22.2923H1.84004C1.56687 22.2923 1.34466 22.07 1.34466 21.7969V1.20308C1.34466 0.929908 1.56687 0.707692 1.84004 0.707692H21.16C21.4331 0.707692 21.6554 0.929908 21.6554 1.20308V21.7969Z" fill="white"/>
<path d="M5.23696 15.2862H3.75081C3.08742 15.2862 2.54773 15.8258 2.54773 16.4892V17.9754C2.54773 18.6388 3.08742 19.1785 3.75081 19.1785H5.23696C5.90035 19.1785 6.44004 18.6388 6.44004 17.9754V16.4892C6.44004 15.8258 5.90035 15.2862 5.23696 15.2862ZM5.73235 17.9754C5.73235 18.2485 5.51013 18.4708 5.23696 18.4708H3.75081C3.47764 18.4708 3.25542 18.2485 3.25542 17.9754V16.4892C3.25542 16.2161 3.47764 15.9938 3.75081 15.9938H5.23696C5.51013 15.9938 5.73235 16.2161 5.73235 16.4892V17.9754Z" fill="white"/>
<path d="M6.21046 4.32053C5.99164 4.01884 5.6373 3.82154 5.23696 3.82154H3.75081C3.08742 3.82154 2.54773 4.36123 2.54773 5.02462V6.51077C2.54773 7.17416 3.08742 7.71385 3.75081 7.71385H5.23696C5.90035 7.71385 6.44004 7.17416 6.44004 6.51077V5.02462C6.44004 4.9869 6.43777 4.94967 6.43438 4.9128L7.33654 4.01063L6.92849 3.60251L6.21046 4.32053ZM5.73234 6.51077C5.73234 6.78394 5.51013 7.00616 5.23696 7.00616H3.75081C3.47764 7.00616 3.25542 6.78394 3.25542 6.51077V5.02462C3.25542 4.75145 3.47764 4.52923 3.75081 4.52923H5.23696C5.44339 4.52923 5.62053 4.65626 5.69491 4.83609L4.61532 5.91567L3.88725 5.18767L3.48698 5.58794L4.44774 6.5487L4.4488 6.54757L4.6241 6.72308L5.73234 5.61483V6.51077Z" fill="white"/>
<path d="M6.92849 9.33482L6.21046 10.0528C5.99164 9.75115 5.6373 9.55385 5.23696 9.55385H3.75081C3.08742 9.55385 2.54773 10.0935 2.54773 10.7569V12.2431C2.54773 12.9065 3.08742 13.4462 3.75081 13.4462H5.23696C5.90035 13.4462 6.44004 12.9065 6.44004 12.2431V10.7569C6.44004 10.7192 6.43777 10.682 6.43438 10.6451L7.33654 9.74294L6.92849 9.33482ZM5.73234 12.2431C5.73234 12.5162 5.51013 12.7385 5.23696 12.7385H3.75081C3.47764 12.7385 3.25542 12.5162 3.25542 12.2431V10.7569C3.25542 10.4838 3.47764 10.2615 3.75081 10.2615H5.23696C5.44339 10.2615 5.62053 10.3886 5.69491 10.5684L4.61532 11.648L3.88725 10.92L3.48698 11.3202L4.44774 12.281L4.4488 12.2799L4.6241 12.4554L5.73234 11.3471V12.2431Z" fill="white"/>
<path d="M18.8246 4.17538H7.99695V4.81231H18.8246V4.17538Z" fill="white"/>
<path d="M13.7293 5.44923H7.99695V6.08616H13.7293V5.44923Z" fill="white"/>
<path d="M18.8246 10.5446H7.99695V11.1815H18.8246V10.5446Z" fill="white"/>
<path d="M16.9139 11.8185H7.99695V12.4554H16.9139V11.8185Z" fill="white"/>
<path d="M18.1877 16.2769H7.99695V16.9138H18.1877V16.2769Z" fill="white"/>
</g>
<defs>
<clipPath id="clip0_167_57">
<rect width="23" height="23" fill="white"/>
</clipPath>
</defs>
</svg>
