<svg width="40" height="40" viewBox="0 0 40 40" fill="none" xmlns="http://www.w3.org/2000/svg">
<path d="M22.5 33.75H18.6C17.677 33.7804 16.7797 33.4434 16.1048 32.8131C15.4299 32.1827 15.0326 31.3104 15 30.3875V23.75H17.5V30.3875C17.5373 30.6451 17.6725 30.8784 17.8773 31.039C18.0821 31.1996 18.3409 31.2752 18.6 31.25H22.5V33.75Z" fill="#B93A3A"/>
<path d="M36.25 27.5H33.75V7.1125C33.7127 6.85726 33.5794 6.62587 33.3773 6.46558C33.1752 6.30529 32.9195 6.22818 32.6625 6.25H18.6C18.3409 6.22481 18.0821 6.30037 17.8773 6.46097C17.6725 6.62158 17.5373 6.8549 17.5 7.1125V13.75H15V7.1125C15.0326 6.1896 15.4299 5.3173 16.1048 4.68694C16.7797 4.05658 17.677 3.71963 18.6 3.75H32.6625C33.5834 3.72301 34.4775 4.06146 35.1496 4.69146C35.8218 5.32147 36.2174 6.19183 36.25 7.1125V27.5Z" fill="#B93A3A"/>
<path d="M10.575 25.8875L5.21246 20.5125C4.74683 20.0441 4.48547 19.4105 4.48547 18.75C4.48547 18.0895 4.74683 17.4559 5.21246 16.9875L10.575 11.6125L12.35 13.3875L6.98746 18.75L12.35 24.1125L10.575 25.8875Z" fill="#B93A3A"/>
<path d="M17.7125 17.5H6.25V20H17.7125V17.5Z" fill="#B93A3A"/>
<path d="M24.4375 36.25C24.0128 36.2605 23.5905 36.184 23.1966 36.0252C22.8026 35.8663 22.4453 35.6285 22.1467 35.3264C21.8481 35.0243 21.6145 34.6643 21.4603 34.2685C21.3061 33.8727 21.2345 33.4495 21.25 33.025V10.525C21.2949 9.53233 21.6584 8.58052 22.2865 7.81055C22.9146 7.04057 23.7741 6.49338 24.7375 6.25L32.2375 4.425C32.7212 4.30085 33.2268 4.28809 33.7161 4.38769C34.2054 4.48729 34.6658 4.69665 35.0625 5C35.4356 5.30065 35.7361 5.68156 35.9417 6.11439C36.1473 6.54722 36.2527 7.02083 36.25 7.5V30C36.2139 30.9953 35.8593 31.9528 35.2382 32.7314C34.6171 33.51 33.7624 34.0686 32.8 34.325L25.3 36.1375C25.0181 36.2097 24.7285 36.2475 24.4375 36.25ZM33.1 6.7875H32.8L25.3 8.6C24.8732 8.71918 24.4943 8.96882 24.2164 9.31399C23.9384 9.65916 23.7754 10.0826 23.75 10.525V33.025C23.7417 33.1353 23.7575 33.2462 23.7964 33.3498C23.8353 33.4534 23.8962 33.5473 23.975 33.625C24.083 33.6894 24.2033 33.7305 24.3282 33.7456C24.4531 33.7607 24.5797 33.7494 24.7 33.7125L32.2 31.8875C32.6202 31.7689 32.994 31.5244 33.2711 31.1869C33.5482 30.8495 33.7153 30.4353 33.75 30V7.5C33.7581 7.39154 33.7422 7.28262 33.7033 7.18105C33.6644 7.07948 33.6035 6.98778 33.525 6.9125C33.401 6.82508 33.2516 6.78113 33.1 6.7875Z" fill="#B93A3A"/>
</svg>
