<svg width="24" height="24" viewBox="0 0 24 24" fill="none" xmlns="http://www.w3.org/2000/svg">
<path d="M0.543094 1.14395H3.72201L5.35853 6.1881L6.22748 9.24376V9.25144L7.29919 13.0211C7.29919 13.0288 7.30643 13.0365 7.30643 13.0441L7.96538 15.3551H7.71194C6.40127 15.3551 5.33681 16.4837 5.33681 17.8733C5.33681 19.263 6.40127 20.3916 7.71194 20.3916H8.89227C8.68951 20.7524 8.56641 21.1747 8.56641 21.62C8.56641 22.9328 9.57294 24 10.8112 24C12.0495 24 13.056 22.9328 13.056 21.62C13.056 21.167 12.9401 20.7524 12.7301 20.3916H17.0387C16.8359 20.7524 16.7128 21.1747 16.7128 21.62C16.7128 22.9328 17.7194 24 18.9576 24C20.1959 24 21.2024 22.9328 21.2024 21.62C21.2024 21.167 21.0865 20.7524 20.8765 20.3916H21.8541C22.151 20.3916 22.3972 20.1305 22.3972 19.8157C22.3972 19.501 22.151 19.2399 21.8541 19.2399H7.7047C6.99506 19.2399 6.41576 18.6257 6.41576 17.8733C6.41576 17.1209 6.99506 16.5067 7.7047 16.5067H8.68951H11.5136H17.8135H20.6376C20.8765 16.5067 21.0865 16.3378 21.159 16.0998L22.0279 13.0441C22.0279 13.0365 22.0279 13.0365 22.0279 13.0288L23.9758 6.18042C24.0265 6.00384 23.9975 5.81958 23.8889 5.6737C23.7803 5.52783 23.6282 5.44338 23.4544 5.44338H19.6093C19.6093 5.44338 19.6093 5.44338 19.6021 5.44338H14.6563H9.71053H9.70329H6.24921L4.61268 0.391555C4.54027 0.161228 4.33027 0 4.09855 0H0.543094C0.246203 0 0 0.261037 0 0.575816C0 0.890595 0.246203 1.14395 0.543094 1.14395ZM11.9698 21.6123C11.9698 22.2879 11.4484 22.8407 10.8112 22.8407C10.174 22.8407 9.6526 22.2879 9.6526 21.6123C9.6526 20.9367 10.174 20.3839 10.8112 20.3839C11.4484 20.3839 11.9698 20.9367 11.9698 21.6123ZM20.1235 21.6123C20.1235 22.2879 19.6021 22.8407 18.9649 22.8407C18.3276 22.8407 17.8063 22.2879 17.8063 21.6123C17.8063 20.9367 18.3276 20.3839 18.9649 20.3839C19.6021 20.3839 20.1235 20.9367 20.1235 21.6123ZM21.1155 12.2764H19.0373L19.5152 9.65067H21.8614L21.1155 12.2764ZM17.9294 12.2764H15.2139V9.65067H18.4145L17.9294 12.2764ZM15.2139 15.3474V13.428H17.7194L17.3718 15.3474H15.2139ZM11.9698 15.3474L11.6222 13.428H14.1277V15.3474H11.9698ZM8.55193 13.428H10.5143L10.8619 15.3474H9.09502L8.55193 13.428ZM15.2139 8.49904V6.57965H18.9721L18.6245 8.49904H15.2139ZM14.1277 8.49904H10.7171L10.3695 6.57965H14.1277V8.49904ZM14.1277 9.65067V12.2764H11.4122L10.9343 9.65067H14.1277ZM10.3043 12.2764H8.22607L7.48022 9.65067H9.82639L10.3043 12.2764ZM20.2466 15.3474H18.4797L18.8273 13.428H20.7897L20.2466 15.3474ZM22.1945 8.49904H19.7324L20.08 6.57965H22.7376L22.1945 8.49904ZM9.26157 6.57965L9.60915 8.49904H7.14712L6.60403 6.57965H9.26157Z" fill="white"/>
</svg>
