<svg width="26" height="26" viewBox="0 0 26 26" fill="none" xmlns="http://www.w3.org/2000/svg">
<path fill-rule="evenodd" clip-rule="evenodd" d="M18.1 14.3333C15.5595 14.3333 13.5 12.244 13.5 9.66667C13.5 7.08934 15.5595 5 18.1 5C20.6405 5 22.7 7.08934 22.7 9.66667C22.7 12.244 20.6405 14.3333 18.1 14.3333ZM18.1 12C16.8297 12 15.8 10.9553 15.8 9.66667C15.8 8.378 16.8297 7.33333 18.1 7.33333C19.3703 7.33333 20.4 8.378 20.4 9.66667C20.4 10.9553 19.3703 12 18.1 12Z" fill="white"/>
<path d="M14.65 17.8333C14.0149 17.8333 13.5 18.3557 13.5 19V26H11.2V19C11.2 17.067 12.7446 15.5 14.65 15.5H21.55C23.4554 15.5 25 17.067 25 19V26H22.7V19C22.7 18.3557 22.1851 17.8333 21.55 17.8333H14.65Z" fill="white"/>
<path d="M2 14.3333H8.9V16.6667H2V14.3333Z" fill="white"/>
<path d="M8.9 19H2V21.3333H8.9V19Z" fill="white"/>
<path d="M2 9.66667H8.9V12H2V9.66667Z" fill="white"/>
</svg>
