<svg width="28" height="28" viewBox="0 0 28 28" fill="none" xmlns="http://www.w3.org/2000/svg">
<path fill-rule="evenodd" clip-rule="evenodd" d="M20.7327 20.588H27.125C27.2759 20.588 27.3984 20.4656 27.3984 20.3145V16.2391C27.3984 15.138 26.5043 14.2441 25.4034 14.2441H19.5198C19.1328 14.2441 18.7714 14.3546 18.4653 14.5457C18.3377 14.5268 18.2074 14.5171 18.0748 14.5171H9.92523C9.79262 14.5171 9.6623 14.5268 9.53471 14.5457C9.22862 14.3546 8.86719 14.2441 8.48017 14.2441H2.59656C1.49548 14.2441 0.601562 15.138 0.601562 16.2391V20.3145C0.601562 20.4656 0.724008 20.588 0.875 20.588H7.26726V22.8201C7.26726 22.9711 7.3897 23.0935 7.5407 23.0935H20.4593C20.6103 23.0935 20.7327 22.9711 20.7327 22.8201V20.588ZM18.4594 15.099C18.3348 15.076 18.2062 15.064 18.0748 15.064H9.92523C9.79382 15.064 9.66519 15.076 9.54056 15.099C9.53083 15.1014 9.52093 15.1034 9.51103 15.1047C8.54388 15.2975 7.81413 16.1518 7.81413 17.1751V20.3145V22.5467H10.1795V20.3145C10.1795 20.1636 10.302 20.0411 10.4529 20.0411C10.6038 20.0411 10.7264 20.1636 10.7264 20.3145V22.5467H17.2736V20.3145C17.2736 20.1636 17.3962 20.0411 17.5471 20.0411C17.698 20.0411 17.8205 20.1636 17.8205 20.3145V22.5467H20.1859V17.1751C20.1859 16.1518 19.4561 15.2975 18.489 15.1047C18.4791 15.1034 18.4692 15.1014 18.4594 15.099ZM25.2957 20.0411H26.8516V16.2391C26.8516 15.4398 26.2024 14.791 25.4034 14.791H19.5198C19.4407 14.791 19.363 14.7973 19.2873 14.8096C20.1453 15.2507 20.7327 16.1448 20.7327 17.1751V20.0411H24.7488V18.5056C24.7488 18.3547 24.8719 18.2322 25.0223 18.2322C25.1732 18.2322 25.2957 18.3547 25.2957 18.5056V20.0411ZM8.7127 14.8096C8.63702 14.7973 8.5593 14.791 8.48017 14.791H2.59656C1.7973 14.791 1.14844 15.4398 1.14844 16.2391V20.0411H2.70408V18.5056C2.70408 18.3547 2.82658 18.2322 2.97751 18.2322C3.1284 18.2322 3.25095 18.3547 3.25095 18.5056V20.0411H7.26726V17.1751C7.26726 16.1448 7.85471 15.2507 8.7127 14.8096ZM5.53837 7.30557C3.75304 7.30557 2.3036 8.75501 2.3036 10.5403C2.3036 12.3256 3.75304 13.7751 5.53837 13.7751C7.3237 13.7751 8.77313 12.3256 8.77313 10.5403C8.77313 8.75501 7.3237 7.30557 5.53837 7.30557ZM22.4616 7.30557C20.6763 7.30557 19.2269 8.75501 19.2269 10.5403C19.2269 12.3256 20.6763 13.7751 22.4616 13.7751C24.2468 13.7751 25.6966 12.3256 25.6966 10.5403C25.6966 8.75501 24.2468 7.30557 22.4616 7.30557ZM14 4.90643C11.5853 4.90643 9.62478 6.86693 9.62478 9.28165C9.62478 11.6964 11.5853 13.6569 14 13.6569C16.4147 13.6569 18.3752 11.6964 18.3752 9.28165C18.3752 6.86693 16.4147 4.90643 14 4.90643ZM5.53837 7.85245C7.02182 7.85245 8.22626 9.05683 8.22626 10.5403C8.22626 12.0238 7.02182 13.2282 5.53837 13.2282C4.05486 13.2282 2.85048 12.0238 2.85048 10.5403C2.85048 9.05683 4.05486 7.85245 5.53837 7.85245ZM22.4616 7.85245C23.9451 7.85245 25.1497 9.05683 25.1497 10.5403C25.1497 12.0238 23.9451 13.2282 22.4616 13.2282C20.9782 13.2282 19.7737 12.0238 19.7737 10.5403C19.7737 9.05683 20.9782 7.85245 22.4616 7.85245ZM14 5.45331C16.1129 5.45331 17.8283 7.16875 17.8283 9.28165C17.8283 11.3946 16.1129 13.11 14 13.11C11.8871 13.11 10.1717 11.3946 10.1717 9.28165C10.1717 7.16875 11.8871 5.45331 14 5.45331Z" fill="white"/>
</svg>
