<svg width="23" height="23" viewBox="0 0 23 23" fill="none" xmlns="http://www.w3.org/2000/svg">
<g clip-path="url(#clip0_167_69)">
<path d="M11.5 7.00781C10.6115 7.00781 9.74301 7.27127 9.00428 7.76488C8.26554 8.25849 7.68976 8.96007 7.34976 9.78091C7.00976 10.6018 6.9208 11.505 7.09413 12.3764C7.26746 13.2478 7.6953 14.0482 8.32355 14.6765C8.95179 15.3047 9.75222 15.7325 10.6236 15.9059C11.495 16.0792 12.3982 15.9902 13.2191 15.6502C14.0399 15.3102 14.7415 14.7345 15.2351 13.9957C15.7287 13.257 15.9922 12.3885 15.9922 11.5C15.9922 10.3086 15.5189 9.16599 14.6765 8.32354C13.834 7.4811 12.6914 7.00781 11.5 7.00781ZM11.5 14.9141C10.8248 14.9141 10.1647 14.7138 9.60325 14.3387C9.04181 13.9635 8.60422 13.4303 8.34582 12.8065C8.08742 12.1827 8.01981 11.4962 8.15154 10.8339C8.28327 10.1717 8.60843 9.56336 9.0859 9.08589C9.56336 8.60843 10.1717 8.28327 10.834 8.15154C11.4962 8.01981 12.1827 8.08742 12.8065 8.34582C13.4303 8.60422 13.9635 9.04181 14.3387 9.60325C14.7138 10.1647 14.9141 10.8248 14.9141 11.5C14.9141 12.4055 14.5544 13.2738 13.9141 13.9141C13.2738 14.5544 12.4055 14.9141 11.5 14.9141Z" fill="white"/>
<path d="M21.7422 8.625H20.1376C20.1002 8.62472 20.0639 8.6128 20.0336 8.5909C20.0033 8.569 19.9806 8.53821 19.9687 8.50281C19.8642 8.20622 19.7443 7.91532 19.6093 7.63133C19.5924 7.59782 19.5865 7.55987 19.5923 7.52282C19.5981 7.48576 19.6154 7.45145 19.6416 7.42469L20.7755 6.28906C20.8923 6.17226 20.9849 6.0336 21.0482 5.88098C21.1114 5.72837 21.1439 5.5648 21.1439 5.39961C21.1439 5.23442 21.1114 5.07085 21.0482 4.91824C20.9849 4.76562 20.8923 4.62696 20.7755 4.51016L18.488 2.22453C18.3712 2.10772 18.2326 2.01506 18.08 1.95184C17.9274 1.88862 17.7638 1.85608 17.5986 1.85608C17.4334 1.85608 17.2698 1.88862 17.1172 1.95184C16.9646 2.01506 16.8259 2.10772 16.7091 2.22453L15.5753 3.35836C15.5486 3.38464 15.5142 3.4019 15.4772 3.4077C15.4401 3.4135 15.4022 3.40755 15.3687 3.3907C15.0847 3.25567 14.7938 3.13571 14.4972 3.03133C14.4618 3.01937 14.431 2.99668 14.4091 2.96641C14.3872 2.93613 14.3753 2.89979 14.375 2.86242V1.25781C14.375 0.92422 14.2425 0.60429 14.0066 0.368405C13.7707 0.132519 13.4508 0 13.1172 0H9.88281C9.54922 0 9.22929 0.132519 8.9934 0.368405C8.75752 0.60429 8.625 0.92422 8.625 1.25781V2.86242C8.62472 2.89979 8.6128 2.93613 8.5909 2.96641C8.569 2.99668 8.53821 3.01937 8.50281 3.03133C8.20622 3.13576 7.91532 3.25571 7.63133 3.3907C7.59782 3.40755 7.55987 3.4135 7.52282 3.4077C7.48576 3.4019 7.45145 3.38464 7.42469 3.35836L6.28906 2.22453C6.17226 2.10772 6.0336 2.01506 5.88098 1.95184C5.72837 1.88862 5.5648 1.85608 5.39961 1.85608C5.23442 1.85608 5.07085 1.88862 4.91824 1.95184C4.76562 2.01506 4.62696 2.10772 4.51016 2.22453L2.22453 4.51195C2.10772 4.62875 2.01506 4.76742 1.95184 4.92003C1.88862 5.07265 1.85608 5.23622 1.85608 5.40141C1.85608 5.5666 1.88862 5.73017 1.95184 5.88278C2.01506 6.03539 2.10772 6.17406 2.22453 6.29086L3.35836 7.42469C3.38464 7.45145 3.4019 7.48576 3.4077 7.52282C3.4135 7.55987 3.40755 7.59782 3.3907 7.63133C3.25567 7.9153 3.13571 8.2062 3.03133 8.50281C3.01937 8.53821 2.99668 8.569 2.96641 8.5909C2.93613 8.6128 2.89979 8.62472 2.86242 8.625H1.25781C0.92422 8.625 0.60429 8.75752 0.368405 8.9934C0.132519 9.22929 0 9.54922 0 9.88281L0 13.1172C0 13.4508 0.132519 13.7707 0.368405 14.0066C0.60429 14.2425 0.92422 14.375 1.25781 14.375H2.86242C2.89979 14.3753 2.93613 14.3872 2.96641 14.4091C2.99668 14.431 3.01937 14.4618 3.03133 14.4972C3.13576 14.7938 3.25571 15.0847 3.3907 15.3687C3.40755 15.4022 3.4135 15.4401 3.4077 15.4772C3.4019 15.5142 3.38464 15.5486 3.35836 15.5753L2.22453 16.7109C2.10772 16.8277 2.01506 16.9664 1.95184 17.119C1.88862 17.2716 1.85608 17.4352 1.85608 17.6004C1.85608 17.7656 1.88862 17.9292 1.95184 18.0818C2.01506 18.2344 2.10772 18.373 2.22453 18.4898L4.51195 20.7773C4.62875 20.8941 4.76742 20.9867 4.92003 21.05C5.07265 21.1132 5.23622 21.1457 5.40141 21.1457C5.5666 21.1457 5.73017 21.1132 5.88278 21.05C6.03539 20.9867 6.17406 20.8941 6.29086 20.7773L7.42469 19.6434C7.45145 19.6172 7.48576 19.5999 7.52282 19.5941C7.55987 19.5883 7.59782 19.5942 7.63133 19.6111C7.9153 19.7461 8.2062 19.8661 8.50281 19.9705C8.53821 19.9824 8.569 20.0051 8.5909 20.0354C8.6128 20.0657 8.62472 20.102 8.625 20.1394V21.7422C8.625 22.0758 8.75752 22.3957 8.9934 22.6316C9.22929 22.8675 9.54922 23 9.88281 23H13.1172C13.4508 23 13.7707 22.8675 14.0066 22.6316C14.2425 22.3957 14.375 22.0758 14.375 21.7422V20.1376C14.3753 20.1002 14.3872 20.0639 14.4091 20.0336C14.431 20.0033 14.4618 19.9806 14.4972 19.9687C14.7938 19.8642 15.0847 19.7443 15.3687 19.6093C15.4022 19.5924 15.4401 19.5865 15.4772 19.5923C15.5142 19.5981 15.5486 19.6154 15.5753 19.6416L16.7109 20.7755C16.8277 20.8923 16.9664 20.9849 17.119 21.0482C17.2716 21.1114 17.4352 21.1439 17.6004 21.1439C17.7656 21.1439 17.9292 21.1114 18.0818 21.0482C18.2344 20.9849 18.373 20.8923 18.4898 20.7755L20.7773 18.488C20.8941 18.3712 20.9867 18.2326 21.05 18.08C21.1132 17.9274 21.1457 17.7638 21.1457 17.5986C21.1457 17.4334 21.1132 17.2698 21.05 17.1172C20.9867 16.9646 20.8941 16.8259 20.7773 16.7091L19.6434 15.5753C19.6172 15.5486 19.5999 15.5142 19.5941 15.4772C19.5883 15.4401 19.5942 15.4022 19.6111 15.3687C19.7461 15.0847 19.8661 14.7938 19.9705 14.4972C19.9824 14.4618 20.0051 14.431 20.0354 14.4091C20.0657 14.3872 20.102 14.3753 20.1394 14.375H21.7422C22.0758 14.375 22.3957 14.2425 22.6316 14.0066C22.8675 13.7707 23 13.4508 23 13.1172V9.88281C23 9.54922 22.8675 9.22929 22.6316 8.9934C22.3957 8.75752 22.0758 8.625 21.7422 8.625ZM21.9219 13.1172C21.9219 13.1648 21.9029 13.2105 21.8692 13.2442C21.8355 13.2779 21.7898 13.2969 21.7422 13.2969H20.1376C19.877 13.2972 19.6229 13.3784 19.4104 13.5294C19.198 13.6803 19.0376 13.8936 18.9516 14.1396C18.8597 14.4001 18.7541 14.6556 18.6354 14.9051C18.5215 15.1402 18.4837 15.405 18.5272 15.6626C18.5707 15.9202 18.6933 16.1578 18.878 16.3426L20.0118 17.4764C20.0453 17.5101 20.064 17.5556 20.064 17.6031C20.064 17.6506 20.0453 17.6961 20.0118 17.7298L17.7262 20.0136C17.6925 20.0471 17.647 20.0658 17.5995 20.0658C17.552 20.0658 17.5065 20.0471 17.4728 20.0136L16.339 18.8798C16.1542 18.6951 15.9166 18.5725 15.659 18.529C15.4014 18.4855 15.1366 18.5233 14.9015 18.6372C14.6515 18.756 14.3953 18.8616 14.1342 18.9534C13.8885 19.0397 13.6757 19.2002 13.5251 19.4126C13.3744 19.625 13.2934 19.879 13.2933 20.1394V21.7422C13.2933 21.7898 13.2743 21.8355 13.2407 21.8692C13.207 21.9029 13.1613 21.9219 13.1136 21.9219H9.88281C9.83516 21.9219 9.78945 21.9029 9.75575 21.8692C9.72206 21.8355 9.70312 21.7898 9.70312 21.7422V20.1376C9.70283 19.877 9.62159 19.6229 9.47062 19.4104C9.31965 19.198 9.10642 19.0376 8.86039 18.9516C8.59987 18.8597 8.34436 18.7541 8.09492 18.6354C7.85979 18.5215 7.59505 18.4837 7.33744 18.5272C7.07984 18.5707 6.84217 18.6933 6.65742 18.878L5.52359 20.0118C5.48993 20.0453 5.44438 20.064 5.39691 20.064C5.34944 20.064 5.3039 20.0453 5.27023 20.0118L2.98641 17.7262C2.95294 17.6925 2.93415 17.647 2.93415 17.5995C2.93415 17.552 2.95294 17.5065 2.98641 17.4728L4.12023 16.339C4.30494 16.1542 4.42755 15.9166 4.47102 15.659C4.51449 15.4014 4.47667 15.1366 4.36281 14.9015C4.244 14.6515 4.13844 14.3953 4.04656 14.1342C3.95976 13.8895 3.79934 13.6776 3.58733 13.5277C3.37531 13.3778 3.12209 13.2971 2.86242 13.2969H1.25781C1.21016 13.2969 1.16445 13.2779 1.13075 13.2442C1.09706 13.2105 1.07812 13.1648 1.07812 13.1172V9.88281C1.07812 9.83516 1.09706 9.78945 1.13075 9.75575C1.16445 9.72206 1.21016 9.70312 1.25781 9.70312H2.86242C3.12305 9.70283 3.37715 9.62159 3.5896 9.47062C3.80205 9.31965 3.96235 9.10642 4.04836 8.86039C4.1403 8.59987 4.24586 8.34436 4.36461 8.09492C4.47847 7.85979 4.51628 7.59505 4.47281 7.33744C4.42934 7.07984 4.30674 6.84217 4.12203 6.65742L2.9882 5.52359C2.95474 5.48993 2.93595 5.44438 2.93595 5.39691C2.93595 5.34944 2.95474 5.3039 2.9882 5.27023L5.27383 2.98641C5.30749 2.95294 5.35304 2.93415 5.40051 2.93415C5.44798 2.93415 5.49352 2.95294 5.52719 2.98641L6.66102 4.12023C6.84576 4.30494 7.08344 4.42755 7.34104 4.47102C7.59864 4.51449 7.86339 4.47667 8.09852 4.36281C8.34854 4.244 8.60465 4.13844 8.86578 4.04656C9.11051 3.95976 9.32238 3.79934 9.4723 3.58733C9.62222 3.37531 9.70285 3.12209 9.70312 2.86242V1.25781C9.70312 1.21016 9.72206 1.16445 9.75575 1.13075C9.78945 1.09706 9.83516 1.07812 9.88281 1.07812H13.1172C13.1648 1.07812 13.2105 1.09706 13.2442 1.13075C13.2779 1.16445 13.2969 1.21016 13.2969 1.25781V2.86242C13.2972 3.12305 13.3784 3.37715 13.5294 3.5896C13.6803 3.80205 13.8936 3.96235 14.1396 4.04836C14.4001 4.1403 14.6556 4.24586 14.9051 4.36461C15.1402 4.47847 15.405 4.51628 15.6626 4.47281C15.9202 4.42934 16.1578 4.30674 16.3426 4.12203L17.4764 2.9882C17.5101 2.95474 17.5556 2.93595 17.6031 2.93595C17.6506 2.93595 17.6961 2.95474 17.7298 2.9882L20.0172 5.27563C20.0507 5.30929 20.0694 5.35483 20.0694 5.4023C20.0694 5.44978 20.0507 5.49532 20.0172 5.52898L18.8834 6.66281C18.6986 6.84756 18.576 7.08523 18.5326 7.34284C18.4891 7.60044 18.5269 7.86518 18.6408 8.10031C18.7596 8.35034 18.8652 8.60645 18.957 8.86758C19.0433 9.11327 19.2038 9.32611 19.4162 9.47674C19.6286 9.62737 19.8826 9.70835 20.143 9.70852H21.7422C21.7898 9.70852 21.8355 9.72745 21.8692 9.76115C21.9029 9.79484 21.9219 9.84055 21.9219 9.8882V13.1172Z" fill="white"/>
</g>
<defs>
<clipPath id="clip0_167_69">
<rect width="23" height="23" fill="white"/>
</clipPath>
</defs>
</svg>
